<svg xmlns="http://www.w3.org/2000/svg" viewBox="0 0 21 12">
    <path d="M20.578 10.5667c-.0558-.0934-.401-.8436-2.0622-2.3853-1.739-1.6145-1.5054-1.3523.5892-4.1439 1.2757-1.7 1.7858-2.7383 1.6261-3.1821C20.5793.4323 19.641.5439 19.641.5439L16.5211.562s-.231-.0312-.4036.0713c-.1674.1013-.2751.3349-.2751.3349s-.4945 1.316-1.1538 2.4346c-1.3899 2.3607-1.9466 2.4853-2.1737 2.3386-.5282-.3413-.3959-1.373-.3959-2.105 0-2.288.3465-3.2419-.6761-3.4884-.34-.0818-.5892-.1363-1.4574-.1454C8.872-.009 7.9285.0066 7.395.2675c-.3556.1739-.6295.5619-.462.584.2063.0272.6735.1258.9214.4633.3206.4347.3089 1.4133.3089 1.4133s.1843 2.6929-.4296 3.0277c-.4218.2297-.9993-.2388-2.2387-2.3814-.6346-1.0967-1.1148-2.3101-1.1148-2.3101s-.0921-.2258-.257-.3465C3.9236.571 3.6433.5244 3.6433.5244L.6764.5426S.2313.5556.0678.7489c-.1454.1726-.0117.5282-.0117.5282S2.379 6.711 5.0085 9.4506c2.4125 2.5112 5.1509 2.3464 5.1509 2.3464h1.2407s.375-.0415.5658-.2479c.1765-.1895.17-.5451.17-.5451s-.0247-1.665.7488-1.9103c.7618-.2414 1.7404 1.6093 2.7773 2.3217.7839.5386 1.3795.4205 1.3795.4205l2.7734-.0389s1.4509-.0896.7631-1.2303z"/>
</svg>
